<svg id="Layer_2" data-name="Layer 2" xmlns="http://www.w3.org/2000/svg" viewBox="0 0 120.78 117.79"><defs><style>.cls-1,.cls-2{fill:#191717;}.cls-1{fill-rule:evenodd;}</style></defs><path class="cls-1" d="M260.93,209A60.4,60.4,0,0,0,241.84,326.7c3,.55,4.13-1.31,4.13-2.91,0-1.44-.06-6.2-.08-11.24-16.8,3.65-20.35-7.13-20.35-7.13-2.74-7-6.7-8.83-6.7-8.83-5.48-3.75.41-3.67.41-3.67,6.06.42,9.26,6.22,9.26,6.22,5.38,9.23,14.12,6.56,17.57,5,.54-3.9,2.11-6.57,3.83-8.08-13.41-1.52-27.51-6.7-27.51-29.84A23.39,23.39,0,0,1,228.62,250c-.62-1.52-2.69-7.66.59-16,0,0,5.07-1.62,16.61,6.19a57.32,57.32,0,0,1,30.24,0c11.53-7.81,16.59-6.19,16.59-6.19,3.29,8.32,1.22,14.46.6,16a23.34,23.34,0,0,1,6.21,16.21c0,23.19-14.13,28.3-27.57,29.8,2.16,1.87,4.09,5.54,4.09,11.18,0,8.08-.07,14.58-.07,16.57,0,1.61,1.09,3.49,4.15,2.9A60.4,60.4,0,0,0,260.93,209Z" transform="translate(-200.55 -209.01)"/><path class="cls-2" d="M223.42,295.71c-.13.3-.61.39-1,.18s-.68-.6-.54-.9.6-.4,1-.19.69.61.54.91Zm-.74-.55" transform="translate(-200.55 -209.01)"/><path class="cls-2" d="M225.87,298.44a1,1,0,0,1-1.24-.28c-.39-.42-.47-1-.18-1.26a1,1,0,0,1,1.24.28c.4.43.48,1,.18,1.26Zm-.58-.62" transform="translate(-200.55 -209.01)"/><path class="cls-2" d="M228.25,301.92c-.37.25-1,0-1.35-.53s-.37-1.18,0-1.43,1,0,1.34.5a1.08,1.08,0,0,1,0,1.46Zm0,0" transform="translate(-200.55 -209.01)"/><path class="cls-2" d="M231.51,305.28c-.33.36-1,.26-1.55-.24a1,1,0,1,1,1.22-1.31c.52.49.68,1.18.33,1.55Zm0,0" transform="translate(-200.55 -209.01)"/><path class="cls-2" d="M236,307.23c-.15.47-.83.68-1.51.48s-1.13-.76-1-1.23.82-.71,1.51-.49,1.13.76,1,1.24Zm0,0" transform="translate(-200.55 -209.01)"/><path class="cls-2" d="M241,307.59c0,.5-.56.91-1.28.92s-1.31-.39-1.32-.88.57-.91,1.29-.92,1.31.38,1.31.88Zm0,0" transform="translate(-200.55 -209.01)"/><path class="cls-2" d="M245.55,306.81c.08.48-.41,1-1.13,1.11s-1.35-.17-1.44-.65.42-1,1.12-1.13,1.36.17,1.45.67Zm0,0" transform="translate(-200.55 -209.01)"/></svg>